<svg width="152" height="15" viewBox="0 0 152 15" fill="none" xmlns="http://www.w3.org/2000/svg">
<g clip-path="url(#clip0_7590_13052)">
<g opacity="0.45">
<path d="M145.368 0.168457H142.721V8.82169H145.368V0.168457Z" fill="#FAFAFA" style="fill:#FAFAFA;fill:color(display-p3 0.9800 0.9800 0.9800);fill-opacity:1;"/>
</g>
<path d="M142.721 6.13428H145.369V14.797H142.721V6.13428Z" fill="#EB605E" style="fill:#EB605E;fill:color(display-p3 0.9216 0.3765 0.3686);fill-opacity:1;"/>
<path d="M142.717 8.84082V6.12984H151.177L150.375 8.84082H142.717Z" fill="#EB605E" style="fill:#EB605E;fill:color(display-p3 0.9216 0.3765 0.3686);fill-opacity:1;"/>
<g opacity="0.45">
<path d="M145.378 6.12158V8.83256H136.919L137.762 6.12158H145.378Z" fill="#FAFAFA" style="fill:#FAFAFA;fill:color(display-p3 0.9800 0.9800 0.9800);fill-opacity:1;"/>
</g>
<path d="M10.0448 7.39704C10.0448 5.81712 9.35657 4.42355 8.14784 3.57607C7.31407 3.01216 6.10534 2.67349 4.70993 2.67349C4.23055 2.67349 3.77174 2.71076 3.39678 2.74803V12.2907C3.39678 12.3653 3.43791 12.4025 3.5012 12.4025C3.83502 12.4414 4.29225 12.4593 4.66721 12.4593C5.91866 12.4593 7.14795 12.14 8.04501 11.4821C9.23158 10.6152 10.0448 9.27836 10.0448 7.41648V7.39704ZM13.3166 7.3225C13.3166 10.0691 12.0667 12.1773 9.96093 13.5514C8.4611 14.5496 6.45974 15.0001 4.1467 15.0001C3.27179 15.0001 2.33361 14.9823 1.66754 14.9628C1.10431 14.9434 0.479378 14.9256 0 14.8883V14.7927C0.291107 14.6242 0.291107 13.9274 0.291107 8.45194V6.38103C0.291107 1.28154 0.291107 0.641467 0.0205674 0.508592V0.320622C0.458811 0.302797 1.10431 0.246082 1.95865 0.226637C2.83355 0.189367 3.60562 0.169922 4.43939 0.169922C6.77299 0.169922 8.56552 0.584752 9.94037 1.35608C12.3167 2.65404 13.3166 5.0069 13.3166 7.30305V7.3225Z" fill="#FAFAFA" style="fill:#FAFAFA;fill:color(display-p3 0.9800 0.9800 0.9800);fill-opacity:1;"/>
<path d="M23.9131 9.78739L23.8925 9.73068C22.7043 6.92571 22.4116 6.13656 22.2455 5.59048H22.225C22.0367 6.13656 21.725 6.92571 20.4957 9.73068L20.4751 9.78739H23.9131ZM19.537 12.0268C18.6605 13.947 18.3282 14.7184 18.5355 14.8318V14.9436H14.8682V14.8318C15.0976 14.7184 15.4931 13.947 18.14 8.43271L22.1411 0H22.5999L26.5394 8.45054C29.1229 13.9276 29.4979 14.7184 29.7273 14.8318V14.9436H25.7894V14.8318C25.9967 14.7184 25.6644 13.9276 24.8307 12.0268H19.537Z" fill="#FAFAFA" style="fill:#FAFAFA;fill:color(display-p3 0.9800 0.9800 0.9800);fill-opacity:1;"/>
<path d="M37.099 8.45106C37.099 13.9281 37.099 14.6054 37.3901 14.8307V14.9441H33.6816V14.8129C33.9727 14.6054 33.9727 13.9281 33.9727 8.4705V6.38015C33.9727 1.28066 33.9727 0.583873 33.7022 0.395903V0.264648H37.3695V0.395903C37.099 0.583873 37.099 1.26121 37.099 6.38015V8.45106Z" fill="#FAFAFA" style="fill:#FAFAFA;fill:color(display-p3 0.9800 0.9800 0.9800);fill-opacity:1;"/>
<path d="M43.5518 6.37933C43.5518 1.27984 43.5518 0.583052 43.2812 0.395082V0.262207H46.928V0.395082C46.6575 0.600876 46.6575 1.27984 46.6575 6.37933V12.383C46.6575 12.5143 46.6986 12.5532 46.8442 12.5532H50.2204C50.6997 12.5532 50.9497 12.5337 51.2218 12.4964C51.4497 12.4576 51.7218 12.383 51.7835 12.3085H51.9512C51.929 13.4363 51.929 13.9257 51.9085 14.9417H43.2812V14.791C43.5518 14.6419 43.5518 13.9078 43.5518 8.45024V6.37933Z" fill="#FAFAFA" style="fill:#FAFAFA;fill:color(display-p3 0.9800 0.9800 0.9800);fill-opacity:1;"/>
<path d="M61.6347 8.8842V9.39139C61.6347 13.8897 61.6347 14.6805 61.9274 14.8312V14.9446H58.2174V14.8117C58.5085 14.6627 58.5085 13.8897 58.5085 9.43028V9.0349L57.0292 6.64477C53.6941 1.24388 53.278 0.527646 52.9854 0.376946V0.265137H56.9881V0.376946C56.7587 0.509822 57.2381 1.29897 58.4041 3.25645C59.0084 4.31135 59.6761 5.42134 60.0922 6.19267H60.1349C60.5304 5.42134 61.1759 4.38589 61.823 3.31316C63.0317 1.29897 63.5111 0.470931 63.3023 0.376946V0.265137H67.0534V0.376946C66.8035 0.527646 66.4079 1.22443 63.0317 6.64477L61.6347 8.8842Z" fill="#FAFAFA" style="fill:#FAFAFA;fill:color(display-p3 0.9800 0.9800 0.9800);fill-opacity:1;"/>
<path d="M88.1225 14.9653H87.6843C83.7876 7.3801 83.2876 6.25228 82.9127 5.29137H82.8921C82.5171 6.27011 81.995 7.41899 78.0145 14.9653H77.5778L74.6177 5.83745C73.034 1.01992 72.8252 0.266416 72.5752 0.117336V0.00390625H76.3264V0.117336C76.0558 0.266416 76.3264 1.00047 77.4528 4.65292C77.9733 6.36409 78.2439 7.30556 78.5366 8.41555H78.5983C79.0159 7.39954 79.4732 6.42081 80.3497 4.63347C81.2657 2.90285 82.1628 1.34076 82.7877 0.154606H83.2038C83.8287 1.32132 84.6419 2.82669 85.7051 4.69019C86.4756 6.32682 86.9771 7.3801 87.3932 8.34101H87.4343C87.727 7.21158 87.977 6.27011 88.4358 4.76473C89.5607 0.982645 89.8534 0.248591 89.5812 0.117336V0.00390625H93.0619V0.117336C92.8119 0.285861 92.5825 1.00047 91.0399 5.83745L88.1225 14.9653Z" fill="#FAFAFA" style="fill:#FAFAFA;fill:color(display-p3 0.9800 0.9800 0.9800);fill-opacity:1;"/>
<path d="M101.587 8.3534C101.587 13.8305 101.587 14.5078 101.878 14.733V14.8465H98.1699V14.7152C98.461 14.5078 98.461 13.8305 98.461 8.37285V6.28249C98.461 1.183 98.461 0.486216 98.1905 0.298247V0.166992H101.858V0.298247C101.587 0.486216 101.587 1.16356 101.587 6.28249V8.3534Z" fill="#FAFAFA" style="fill:#FAFAFA;fill:color(display-p3 0.9800 0.9800 0.9800);fill-opacity:1;"/>
<path d="M114.639 4.60817C114.639 3.2535 113.66 2.46273 112.097 2.46273C111.742 2.46273 111.451 2.48217 111.263 2.5V6.97886C111.429 6.99831 111.658 6.99831 111.867 6.99831C112.451 6.99831 113.035 6.84761 113.451 6.62237C114.035 6.32097 114.639 5.6809 114.639 4.62762V4.60817ZM108.303 6.2837C108.303 1.18259 108.303 0.391818 108.053 0.317278V0.203848C108.407 0.186023 108.991 0.166578 109.575 0.147133C110.075 0.129308 110.992 0.109863 111.533 0.109863C112.722 0.109863 113.744 0.203848 114.66 0.467978C115.952 0.843917 117.724 1.93609 117.724 4.43965C117.724 6.18971 116.723 7.31753 115.973 7.8069C115.577 8.09048 115.118 8.35299 114.764 8.46642V8.50368C115.055 8.87963 115.41 9.33173 118.536 13.2467C119.036 13.8673 119.683 14.6208 119.89 14.7326V14.846H116.765C116.577 14.846 116.307 14.8266 116.098 14.7699C114.889 13.1333 113.471 11.213 111.826 9.03032H111.263V9.78382C111.263 13.83 111.283 14.6208 111.513 14.7326V14.846H108.053V14.7326C108.303 14.6208 108.303 13.83 108.303 8.35299V6.2837Z" fill="#FAFAFA" style="fill:#FAFAFA;fill:color(display-p3 0.9800 0.9800 0.9800);fill-opacity:1;"/>
<path d="M130.719 8.55886H128.031V12.1157C128.031 12.2858 128.051 12.3798 128.176 12.4544C129.26 12.4738 130.698 12.4738 131.657 12.4544C132.532 12.4544 133.095 12.4171 133.261 12.2291H133.386C133.365 13.3586 133.365 13.9792 133.365 14.8445H124.654V14.7327C124.925 14.6193 124.925 13.8285 124.925 8.35145V6.28216C124.925 1.18105 124.925 0.391899 124.675 0.278469V0.165039H133.198C133.198 1.01252 133.179 1.67042 133.179 2.78041H133.052C132.907 2.57462 131.968 2.5179 130.698 2.5179H128.031V6.22544H130.677" fill="#FAFAFA" style="fill:#FAFAFA;fill:color(display-p3 0.9800 0.9800 0.9800);fill-opacity:1;"/>
<path d="M133.052 6.19727H127.934L127.943 8.65384H132.039L133.052 6.19727Z" fill="#FAFAFA" style="fill:#FAFAFA;fill:color(display-p3 0.9800 0.9800 0.9800);fill-opacity:1;"/>
</g>
<defs>
<clipPath id="clip0_7590_13052">
<rect width="151.177" height="14.9999" fill="white" style="fill:white;fill-opacity:1;"/>
</clipPath>
</defs>
</svg>
